<svg width="1920" height="1084" viewBox="0 0 1920 1084" fill="none" xmlns="http://www.w3.org/2000/svg">
<path d="M1924 0H-11V1045H1924V0Z" fill="url(#paint0_linear_6_39)"/>
<path d="M555.5 1017C706.55 1017 829 895.445 829 745.5C829 595.555 706.55 474 555.5 474C404.45 474 282 595.555 282 745.5C282 895.445 404.45 1017 555.5 1017Z" fill="#D25A14" fill-opacity="0.375758"/>
<path d="M555.5 920.789C653.023 920.789 732.08 842.309 732.08 745.5C732.08 648.691 653.023 570.211 555.5 570.211C457.978 570.211 378.92 648.691 378.92 745.5C378.92 842.309 457.978 920.789 555.5 920.789Z" fill="#D2550C"/>
<path d="M-29.2866 472.936C-13.7538 454.067 8.25388 443.778 33.5979 440.157C58.9419 436.536 89.9465 439.141 131.207 455.381C172.468 471.62 233.068 505.526 284.537 532.283C336.005 559.041 385.647 582.548 440.55 595.599C495.453 608.65 559.867 612.24 608.576 613.56C657.285 614.88 693.027 613.974 736.156 626.708C779.286 639.442 833.133 666.543 876.437 680.713C919.741 694.883 955.171 696.256 996.268 690.799C1037.37 685.342 1086.04 673.018 1141.54 665.95C1197.03 658.882 1260.94 657.091 1316.32 654.47C1371.7 651.848 1422.58 648.167 1472.63 636.087C1522.68 624.008 1578.03 602.449 1617.32 595.318C1656.6 588.187 1683.22 593.479 1719.49 611.514C1755.77 629.549 1804.4 662.348 1842.58 681.395C1880.77 700.441 1933.3 713.83 1955.48 727.818C1977.65 741.806 1996.69 815.826 1965.98 850.662C1935.28 885.497 1847.94 923.287 1771.14 943.386C1694.34 963.485 1616.9 970.748 1504.62 976.46C1392.34 982.171 1245.12 986.349 1119.48 990.637C993.845 994.924 889.644 999.328 781.772 1001.64C673.899 1003.94 561.438 1004.16 456.145 1016.87C350.851 1029.58 249.123 1055.5 177.242 1040.42C105.361 1025.35 55.4496 966.467 28.182 914.786C0.914379 863.105 -7.92262 811.493 -19.7372 751.585C-31.5518 691.677 -46.8319 621.001 -50.2656 573.185C-53.6993 525.37 -44.8194 491.806 -29.2866 472.936Z" fill="#E4E4E4" fill-opacity="0.39798"/>
<path d="M1920.38 50C1890.2 55.8863 1862.05 63.2823 1841.21 73.9088C1805.37 92.1819 1773.75 129.717 1732.64 155.298C1691.53 180.878 1616.14 208.265 1560.47 218.858C1504.8 229.452 1456.76 227.925 1414.97 224.966C1373.17 222.008 1337.63 217.577 1289.2 231.977C1240.77 246.377 1177.02 280.711 1110.77 306.576C1044.51 332.441 970.364 351.341 917.174 366.305C863.984 381.269 814.258 397.678 803.253 402.346C792.247 407.014 856.19 445.296 899.528 445.937C942.865 446.578 1005.29 431.281 1065.92 424.275C1126.56 417.27 1194.51 418.235 1251.77 422.919C1309.03 427.603 1370.01 436.707 1454.91 432.349C1539.81 427.992 1654.7 409.976 1738.65 393.549C1813.13 378.973 1869.57 364.339 1920.38 349.434V50Z" fill="#E4E4E4" fill-opacity="0.39798"/>
<path d="M2 45V390.986C27.9082 390.89 53.4305 389.928 77.4396 388.401C159.003 383.211 224.433 371.518 283.112 351.93C341.791 332.342 391.901 306.031 443.391 287.478C494.881 268.925 549.011 258.48 575.488 253.372C601.965 248.263 537.407 161.107 469.615 143.633C401.823 126.158 288.337 122.617 198.773 105.868C122.847 91.6692 61.3426 67.0151 2 45Z" fill="#E4E4E4" fill-opacity="0.39798"/>
<path d="M-2.5 696L222.245 609.547L396.358 709.698L731.19 643.745L910.66 714.583L1138.35 536.266L1470.5 685.271L1580.32 633.974L1719.61 690.156L1923.19 441V1071H-2.5V696Z" fill="url(#paint1_linear_6_39)"/>
<path d="M-2.70483 680L68 746.5L146.404 711.653L295.17 772.321L338.447 724.842L625.159 814.525L830.726 685.276L1098.5 782.872L1488 716.929L1815.28 790.785L1921 715L1919.5 1071L-2.70483 1073.5V680Z" fill="#67003A"/>
<path d="M4 746L195.058 854.106L396.585 827.739L535.299 920.024L807.492 893.657L985.464 1007.04L1260.27 1020.22L1443.48 946.392L1600.51 985.943L1803.81 877.973L1928 901.567V1084H4V746Z" fill="#5D002E"/>
<defs>
<linearGradient id="paint0_linear_6_39" x1="956.5" y1="1449.72" x2="956.5" y2="-404.721" gradientUnits="userSpaceOnUse">
<stop offset="0.144112" stop-color="#E49351"/>
<stop offset="1" stop-color="#F99EE1"/>
</linearGradient>
<linearGradient id="paint1_linear_6_39" x1="949.5" y1="13.526" x2="949.5" y2="1806.47" gradientUnits="userSpaceOnUse">
<stop stop-color="#A20050" stop-opacity="0.929412"/>
<stop offset="0.741652" stop-color="#FFA9A0"/>
</linearGradient>
</defs>
</svg>
